<svg width="29" height="27" viewBox="0 0 29 27" fill="none" xmlns="http://www.w3.org/2000/svg">
<path d="M29 4.28461C28.1654 5.6158 27.1223 6.72512 26.0791 7.61257C26.0791 7.83443 26.0791 8.05629 26.0791 8.50002C26.0791 10.2749 25.8705 12.0498 25.4533 13.6029C25.0359 15.3778 24.2015 16.9308 23.3668 18.4839C22.3238 20.0369 21.2806 21.368 20.0288 22.6993C18.5683 24.0304 16.8993 24.918 15.2302 25.5835C13.3525 26.2491 11.2662 26.6928 9.17985 26.6928C5.84172 26.6928 2.71223 25.5835 0 23.8087C0.417266 23.8087 0.834533 23.8087 1.46043 23.8087C4.17266 23.8087 6.88489 22.9211 8.97123 21.1463C7.71941 21.1463 6.46762 20.7025 5.42445 19.8152C4.3813 18.9276 3.75538 18.0402 3.33813 16.709C3.75538 16.709 4.17266 16.709 4.3813 16.709C5.0072 16.709 5.42447 16.709 6.05037 16.4871C4.79857 16.2653 3.54676 15.3778 2.71223 14.2685C1.46043 13.1592 1.04316 11.828 1.04316 10.2749C1.8777 10.7187 2.92086 10.9405 3.7554 11.1624C2.92086 10.4968 2.29496 9.83122 1.66906 8.94374C1.2518 8.05629 0.834531 6.94698 0.834531 5.83765C0.834531 4.72833 1.04316 3.61902 1.66906 2.73157C3.12949 4.72833 5.0072 6.28139 7.09354 7.3907C9.17985 8.50002 11.4748 9.16561 13.9784 9.38747C13.9784 8.94375 13.7698 8.50002 13.7698 7.83443C13.7698 6.50325 14.1871 5.39392 14.8129 4.28461C15.4388 3.17529 16.482 2.5097 17.5252 1.8441C18.5684 1.40038 19.8201 1.17851 21.072 1.62224C22.3238 1.8441 23.3668 2.5097 24.2015 3.39715C25.4533 3.17529 26.9137 2.73157 27.9568 1.8441C27.5396 3.39715 26.4963 4.50647 25.2447 5.39392C26.7049 5.17206 27.9568 4.95019 29 4.28461Z" fill="white"/>
</svg>
